<svg xmlns="http://www.w3.org/2000/svg" width="223" height="74" viewBox="0 0 223 74">
    <g fill="none" fill-rule="evenodd">
        <g fill="#020202">
            <path d="M71.024 3.85c1.387 1.361 2.305 3.081 2.66 4.956h-5.376c.378-1.872 1.327-3.612 2.716-4.957zm-2.899 7.717h5.723v3.107h3.047v-4.125c0-3.865-1.794-7.45-4.922-9.837l-.931-.709-.938.7c-3.147 2.351-5.026 6.058-5.026 9.916v4.055h3.047v-3.107zm-32.36-5.514l6.142 4.525v4.096h3.186V.407h-3.186v6.237L32.852 0h-.272v14.674h3.185V6.053zm94.05-5.646v6.237L120.758 0h-.272v14.674h3.186V6.053l6.141 4.525v4.096H133V.407h-3.186zM104.767 7.52c0-2.69 1.991-4.565 4.402-4.565 2.452 0 4.401 1.875 4.401 4.565 0 2.69-1.949 4.545-4.401 4.545-2.41 0-4.402-1.854-4.402-4.545zm12.22 0c0-4.34-3.48-7.5-7.798-7.5s-7.818 3.16-7.818 7.5c0 4.362 3.5 7.48 7.818 7.48s7.798-3.118 7.798-7.48zm-22.694 7.154h3.354V.407h-3.354v14.267zm-11.052 0h3.353V3.179h4.088V.407H79.154V3.18h4.088v11.495zm-29.41-2.894h-.441V3.24h.42c2.64 0 4.485 1.794 4.485 4.28 0 2.569-1.949 4.26-4.465 4.26zM53.81.407h-3.773v14.267h3.836c4.402 0 7.819-2.955 7.819-7.133 0-4.199-3.417-7.134-7.882-7.134zM20.566 2.955c2.453 0 4.402 1.875 4.402 4.565 0 2.69-1.95 4.545-4.402 4.545-2.41 0-4.402-1.854-4.402-4.545 0-2.69 1.992-4.565 4.402-4.565zM20.587 15c4.318 0 7.797-3.118 7.797-7.48 0-4.34-3.479-7.5-7.797-7.5s-7.818 3.16-7.818 7.5c0 4.362 3.5 7.48 7.818 7.48zM3.354 10.23h5.093V7.664H3.354V3.179h6.141V.407H0v14.267h3.354V10.23zM15.468 46.479c.377-1.965 1.326-3.79 2.715-5.202 1.387 1.43 2.306 3.235 2.66 5.202h-5.375zm3.665-8.494l-.932-.744-.937.735c-3.147 2.467-5.026 6.356-5.026 10.405v4.256h3.047v-3.26h5.722v3.26h3.047v-4.33c0-4.055-1.793-7.818-4.921-10.322zm79.76-4.565l2.372 2.42 2.371-2.42-2.371-2.42-2.372 2.42zm.695 19.216h3.354v-13.88h-3.354v13.88zm23.708 0H133v-2.908h-6.35v-3.23h5.303v-2.695h-5.304v-3.229H133v-2.909h-9.704v14.971zm-6.96-8.426l-9.056-6.972h-.272v15.398h3.186V43.59l6.141 4.748v4.298h3.186v-14.97h-3.186v6.544zM54.12 52.636h3.354v-14.97h-3.354v14.97zM88.268 49.9c-2.41 0-4.402-1.946-4.402-4.77 0-2.823 1.991-4.79 4.402-4.79 2.452 0 4.401 1.967 4.401 4.79 0 2.824-1.949 4.77-4.401 4.77zm.02-12.64c-4.317 0-7.818 3.315-7.818 7.87 0 4.578 3.501 7.85 7.819 7.85s7.797-3.272 7.797-7.85c0-4.555-3.479-7.87-7.797-7.87zm-13.1-.021l-5.471 9.773-5.47-9.773h-.273l-3.417 15.398h3.312l1.55-7.4L69.55 53h.335l4.13-7.764 1.55 7.4h3.333l-3.416-15.398h-.294zm-31.422 8.94h-.587v-5.839h.587c2.16 0 2.998 1.69 2.998 2.908 0 1.22-.818 2.93-2.998 2.93zm4.653 2.245c-.252-.278-.524-.577-.86-.855 1.615-.941 2.621-2.481 2.621-4.278 0-2.95-2.516-5.625-6.247-5.625h-4.108v14.971h3.354v-3.785h.566c1.362 0 1.991.813 2.662 1.711.9 1.176 1.802 2.16 4.276 2.16v-3.058c-1.048 0-1.614-.535-2.264-1.24zM25.11 40.574h4.088v12.062h3.354V40.574h4.087v-2.909H25.11v2.91zM3.94 46.177h-.587V40.34h.587c2.16 0 2.998 1.69 2.998 2.908 0 1.22-.818 2.93-2.998 2.93zm.168-8.512H0v14.971h3.353v-3.785h.713c3.794 0 6.289-2.63 6.289-5.56 0-2.952-2.516-5.626-6.247-5.626zM17 26.818V21h-2.474v5.818c0 .846-.243 1.854-1.4 1.854-1.167 0-1.412-1.008-1.412-1.854V21H9.241v5.818c0 2.619 1.452 4.182 3.885 4.182C15.516 31 17 29.398 17 26.818zM2.474 28.485V23.26h.068c1.53 0 2.6 1.077 2.6 2.618 0 1.534-1.064 2.606-2.587 2.606h-.081zm5.168-2.592c0-2.835-2.145-4.893-5.1-4.893H0v9.785h2.58c2.886 0 5.062-2.102 5.062-4.892z" transform="translate(90 11)"/>
        </g>
        <g fill="#E82E2E">
            <path d="M59 23L59 51 73 37zM36.643 0L0 37 36.643 74 57 53.444 26.967 53.444 26.967 20.555 57 20.555z"/>
            <path d="M35 35.716V46h17V35.716C52 30.902 48.194 27 43.5 27c-4.695 0-8.5 3.902-8.5 8.716"/>
        </g>
    </g>
</svg>
